<svg width="95" height="95" viewBox="0 0 95 95" fill="none" xmlns="http://www.w3.org/2000/svg">
<path d="M84.4344 68.5222C82.7319 70.1302 77.957 73.6906 72.8004 77.7913C67.6438 81.8919 58.171 89.3364 57.0046 89.9928C55.8382 90.6492 55.1256 91.106 53.9778 91.6008C52.8301 92.0956 52.1685 92.3579 50.9511 92.6412C49.7337 92.9245 46.9718 93.1109 44.803 92.8304C42.6343 92.5498 41.4365 92.1431 39.4117 91.317C37.3868 90.491 25.3861 81.1102 21.8179 78.4537C18.2496 75.7972 12.7376 71.4543 9.04883 68.0492C5.36002 64.644 5.45464 63.0363 5.26568 61.6175C5.07671 60.1987 5.07617 55.1856 5.07617 53.0101C5.0761 52.9155 5.32222 52.8021 5.54922 53.4831C5.83298 54.3344 6.02214 55.1857 7.25176 56.9828C8.48137 58.7799 9.14347 59.0637 9.52181 59.442C9.82449 59.7447 27.3039 73.3777 36.0058 80.1563C37.7714 81.6381 42.4944 84.4694 47.2615 83.9397C53.2204 83.2776 56.058 82.048 60.5035 78.3592C64.0599 75.4081 76.9299 65.5901 82.9203 61.05C84.1499 60.0726 86.7794 57.7206 87.4604 56.1315C88.3117 54.1452 89.0683 53.388 89.0683 52.8209C89.0683 52.8209 89.1524 60.2199 88.88 61.4279C88.6076 62.636 88.5489 63.0362 87.8395 64.455C87.1301 65.8738 86.137 66.9143 84.4344 68.5222Z" fill="url(#paint0_linear_3094_2568)"/>
<path d="M84.4701 60.1181C82.7676 61.7261 77.8761 65.1489 72.7195 69.2496C67.5629 73.3502 58.0529 80.4699 56.8864 81.1264C55.72 81.7828 55.1021 82.0503 53.9543 82.5451C52.8065 83.0399 52.0503 83.1131 50.833 83.3964C49.6156 83.6797 46.5766 84.1964 44.7795 83.9639C42.9823 83.7314 41.3183 83.182 39.2935 82.356C37.2687 81.5299 25.3052 72.5685 21.737 69.912C18.1687 67.2555 12.6567 62.9127 8.96793 59.5075C5.27911 56.1023 5.11116 54.2987 5.11145 53.0258C5.11173 51.7529 5.09892 45.2666 5.09889 44.1316C5.09885 42.9965 5.22188 43.7436 5.47726 44.5098C5.73264 45.2759 5.76106 45.7394 6.99067 47.5365C8.22029 49.3337 9.39315 50.3174 9.73366 50.6579C10.0742 50.9984 30.3213 66.4848 35.5556 70.6155C40.7898 74.7461 43.4345 75.5623 48.7976 74.9664C54.1606 74.3705 57.0927 72.3275 61.0937 69.0075C65.0947 65.6875 80.1054 54.0506 82.5647 52.1712C85.0239 50.2919 88.3799 45.9532 88.6181 45.3611C88.8564 44.769 88.951 44.4852 89.0456 43.9177C89.1402 43.3502 89.1036 50.472 89.1036 52.3637C89.1036 54.2555 88.4415 55.1877 88.2523 55.4851C88.0631 55.7824 86.1727 58.5102 84.4701 60.1181Z" fill="url(#paint1_linear_3094_2568)"/>
<path d="M84.4474 51.4043C82.7449 53.0122 77.8534 56.4351 72.6968 60.5357C67.5401 64.6364 58.1475 71.6738 56.9811 72.3302C55.8146 72.9866 55.1021 73.2542 53.9543 73.749C52.8065 74.2438 51.5897 74.5408 50.9276 74.6948C50.2655 74.8489 46.3874 75.2623 44.8741 75.1678C43.3607 75.0732 41.7527 74.5057 39.6719 73.5598C37.591 72.6139 25.2825 63.8547 21.7143 61.1981C18.146 58.5416 12.634 54.1988 8.94522 50.7936C5.25641 47.3884 5.08846 45.5849 5.08874 44.312C5.08903 43.0391 5.07622 36.5527 5.07618 35.4177C5.07615 34.2827 5.19917 35.0298 5.45455 35.7959C5.70993 36.562 5.73836 37.0256 6.96797 38.8227C8.19758 40.6198 9.37045 41.6035 9.71095 41.944C10.0515 42.2845 30.2986 57.771 35.5329 61.9016C40.7671 66.0322 43.4118 66.8484 48.7748 66.2525C54.1379 65.6566 57.07 63.6136 61.071 60.2936C65.072 56.9737 80.0827 45.3367 82.5419 43.4574C85.0012 41.5781 87.7442 38.4443 88.4781 36.4457C89.212 34.4471 89.2348 34.8378 89.1402 35.8782C89.0456 36.9186 89.0809 41.7581 89.0809 43.6499C89.0809 45.5416 88.4188 46.4738 88.2296 46.7712C88.0404 47.0686 86.15 49.7963 84.4474 51.4043Z" fill="url(#paint2_linear_3094_2568)"/>
<path d="M5.34295 36.369C3.18415 30.4056 16.3934 19.957 20.9206 16.5114C25.4479 13.0658 30.2764 9.51297 32.5903 7.78972C34.9043 6.06646 37.9056 3.69801 38.5193 3.38221C39.1331 3.0664 39.4766 2.87135 40.1217 2.63522C40.7667 2.39908 41.1603 2.24867 41.8196 2.08751C42.4789 1.92635 42.9396 1.78714 43.235 1.71737C43.5304 1.6476 44.0721 1.5933 44.3679 1.52481C44.6636 1.45631 44.7855 1.47124 45.1233 1.43446C45.4611 1.39769 45.6993 1.43762 46.0683 1.43963C46.4373 1.44165 46.7018 1.43695 47.1078 1.44531C47.5137 1.45366 48.3796 1.45132 49.1872 1.55114C49.9948 1.65095 51.0752 1.85535 52.1203 2.22843C53.1653 2.60151 53.7031 2.93873 54.6784 3.47049C55.6537 4.00224 57.4778 5.29158 59.2308 6.51831C60.9839 7.74504 66.1091 11.9164 70.524 15.3655C74.939 18.8146 82.0018 24.239 82.8609 24.9741C83.72 25.7093 84.3122 26.1167 85.0447 26.8754C85.7771 27.6342 86.4649 28.1862 87.0411 29.0689C87.6172 29.9515 87.857 30.3536 88.2819 31.3429C88.7069 32.3322 89.1438 33.4259 89.1515 34.843C89.1592 36.26 88.7987 36.892 88.41 37.484C88.0213 38.076 86.9427 39.515 86.44 40.1183C85.9372 40.7217 85.0485 41.7 84.1855 42.5622C83.3225 43.4243 75.3026 49.4376 70.1653 53.4438C65.028 57.4499 58.1146 63.1447 56.9924 63.7632C55.8702 64.3817 55.1597 64.8566 53.9772 65.3527C52.7948 65.8488 51.5222 66.0133 49.825 66.3692C48.1278 66.725 45.617 66.8371 43.8727 66.5256C42.1283 66.2141 41.2318 65.7038 40.3696 65.2784C39.5074 64.8529 38.9266 64.4255 38.0944 63.9434C37.2621 63.4612 34.9518 61.507 32.7803 59.8522C30.6089 58.1974 25.5439 55.035 21.1122 51.5702C16.6806 48.1054 7.50175 42.3324 5.34295 36.369Z" fill="#FFD9B7"/>
<g filter="url(#filter0_d_3094_2568)">
<path d="M25.5655 29.5247C25.5655 29.5247 40.8355 37.1409 50.0984 37.3511C47.9855 39.6832 44.3205 46.3438 31.0213 45.9912C35.5022 47.9757 43.901 52.2952 54.3678 45.3882C58.0596 43.0101 59.6801 40.4673 61.3306 38.4037C62.9811 36.3402 65.0725 35.2552 68.6518 37.3895C67.3645 34.3027 65.9047 31.5621 61.175 30.2161C61.175 30.2161 57.6548 17.35 40.0849 15.7381C45.6752 19.4292 48.8672 21.4879 51.7754 29.3418C47.9259 29.0932 32.8874 26.7533 29.0193 25.4031C32.3999 27.4055 40.9544 31.1403 43.5849 31.8461C39.4436 31.5193 25.5655 29.5247 25.5655 29.5247Z" fill="white"/>
</g>
<defs>
<filter id="filter0_d_3094_2568" x="24.8088" y="15.7383" width="44.5997" height="34.9323" filterUnits="userSpaceOnUse" color-interpolation-filters="sRGB">
<feFlood flood-opacity="0" result="BackgroundImageFix"/>
<feColorMatrix in="SourceAlpha" type="matrix" values="0 0 0 0 0 0 0 0 0 0 0 0 0 0 0 0 0 0 127 0" result="hardAlpha"/>
<feOffset dy="0.756686"/>
<feGaussianBlur stdDeviation="0.378343"/>
<feComposite in2="hardAlpha" operator="out"/>
<feColorMatrix type="matrix" values="0 0 0 0 0 0 0 0 0 0 0 0 0 0 0 0 0 0 0.25 0"/>
<feBlend mode="normal" in2="BackgroundImageFix" result="effect1_dropShadow_3094_2568"/>
<feBlend mode="normal" in="SourceGraphic" in2="effect1_dropShadow_3094_2568" result="shape"/>
</filter>
<linearGradient id="paint0_linear_3094_2568" x1="52.7246" y1="87.9364" x2="39.8609" y2="87.1797" gradientUnits="userSpaceOnUse">
<stop stop-color="#FF8D28"/>
<stop offset="0.497176" stop-color="#FF8D28" stop-opacity="0.76"/>
<stop offset="1" stop-color="#FF8D28"/>
</linearGradient>
<linearGradient id="paint1_linear_3094_2568" x1="54.5218" y1="79.3292" x2="38.8206" y2="78.7617" gradientUnits="userSpaceOnUse">
<stop stop-color="#FB9F4E"/>
<stop offset="0.5" stop-color="#FB9F4E" stop-opacity="0.76"/>
<stop offset="1" stop-color="#FB9F4E"/>
</linearGradient>
<linearGradient id="paint2_linear_3094_2568" x1="54.6164" y1="71.8573" x2="39.3881" y2="71.1006" gradientUnits="userSpaceOnUse">
<stop stop-color="#FBC493"/>
<stop offset="0.5" stop-color="#FBC493" stop-opacity="0.76"/>
<stop offset="1" stop-color="#FBC493"/>
</linearGradient>
</defs>
</svg>
