<svg width="195" height="195" viewBox="0 0 195 195" fill="none" xmlns="http://www.w3.org/2000/svg">
<g filter="url(#filter0_d_3223_3807)">
<rect width="186" height="186" fill="#8133F1"/>
<rect x="1" y="1" width="184" height="184" stroke="black" stroke-width="2"/>
<path d="M44.4639 96.0596C44.9567 124.194 67.8802 146.855 96.0967 146.863C96.0967 146.867 96.0976 146.87 96.0977 146.873C67.8714 146.873 44.9369 124.204 44.4482 96.0605C44.4534 96.0604 44.4587 96.0597 44.4639 96.0596ZM96.0986 44.1289C96.0987 72.2974 118.9 95.1317 147.035 95.1318C147.284 95.1318 147.516 95.1323 147.765 95.124C147.757 68.0061 126.917 45.7701 100.401 43.5781C126.915 45.7646 147.762 68.0021 147.77 95.124V95.1318C147.77 95.4383 147.769 95.7453 147.761 96.0518C147.272 124.195 124.33 146.864 96.1123 146.864C96.1071 146.864 96.1019 146.863 96.0967 146.863C95.992 118.774 73.2263 96.0435 45.1689 96.0518C44.9339 96.0518 44.6989 96.0518 44.4639 96.0596C44.4638 96.057 44.4639 96.0544 44.4639 96.0518C44.4556 95.7453 44.4551 95.4383 44.4551 95.1318V95.124C44.6954 95.1316 44.9209 95.1318 45.1621 95.1318C73.2973 95.1318 96.0986 72.2974 96.0986 44.1289C96.0986 43.8806 96.0986 43.6405 96.082 43.4004H96.1074C96.0992 43.6487 96.0986 43.8806 96.0986 44.1289ZM147.045 96.042C118.976 96.0423 96.2088 118.769 96.1094 146.863C124.327 146.863 147.269 124.194 147.758 96.0508C147.518 96.0425 147.269 96.042 147.045 96.042ZM96.082 43.4004C67.799 43.4206 44.8246 66.2048 44.459 94.4551L44.4551 95.124C44.4479 95.1238 44.4408 95.1243 44.4336 95.124C44.4419 66.5579 67.5659 43.4087 96.082 43.4004ZM100.092 43.5518C100.057 43.5491 100.021 43.5475 99.9863 43.5449C100.021 43.5475 100.057 43.5491 100.092 43.5518ZM98.9512 43.4785C99.2971 43.4973 99.6422 43.5193 99.9863 43.5449C99.6422 43.5192 99.2971 43.4974 98.9512 43.4785ZM98.4971 43.4551C98.6486 43.462 98.8 43.4703 98.9512 43.4785C98.8 43.4703 98.6486 43.462 98.4971 43.4551ZM97.8369 43.4297C98.0573 43.437 98.2774 43.445 98.4971 43.4551C98.2774 43.445 98.0573 43.437 97.8369 43.4297ZM96.1709 43.4004C96.7284 43.4012 97.2837 43.4113 97.8369 43.4297C97.2837 43.4114 96.7284 43.4011 96.1709 43.4004Z" fill="#FAF7F5"/>
</g>
<defs>
<filter id="filter0_d_3223_3807" x="0" y="0" width="195" height="195" filterUnits="userSpaceOnUse" color-interpolation-filters="sRGB">
<feFlood flood-opacity="0" result="BackgroundImageFix"/>
<feColorMatrix in="SourceAlpha" type="matrix" values="0 0 0 0 0 0 0 0 0 0 0 0 0 0 0 0 0 0 127 0" result="hardAlpha"/>
<feMorphology radius="2" operator="erode" in="SourceAlpha" result="effect1_dropShadow_3223_3807"/>
<feOffset dx="10" dy="10"/>
<feGaussianBlur stdDeviation="0.5"/>
<feComposite in2="hardAlpha" operator="out"/>
<feColorMatrix type="matrix" values="0 0 0 0 0.386569 0 0 0 0 0.366669 0 0 0 0 0.366669 0 0 0 1 0"/>
<feBlend mode="normal" in2="BackgroundImageFix" result="effect1_dropShadow_3223_3807"/>
<feBlend mode="normal" in="SourceGraphic" in2="effect1_dropShadow_3223_3807" result="shape"/>
</filter>
</defs>
</svg>
