<svg width="189" height="189" viewBox="0 0 189 189" fill="none" xmlns="http://www.w3.org/2000/svg">
<g filter="url(#filter0_d_3223_3815)">
<rect width="180" height="180" fill="#FE91E7"/>
<rect x="1" y="1" width="178" height="178" stroke="black" stroke-width="2"/>
<path d="M57.5672 132.514C55.5682 133.738 53 132.3 53 129.956V49.3595C53 47.0145 55.5696 45.5762 57.5686 46.8023L123.307 87.1253C125.216 88.2964 125.216 91.0707 123.306 92.2407L57.5672 132.514Z" fill="#FAF7F5"/>
<path d="M83.0307 132.516C81.0317 133.74 78.4644 132.302 78.4644 129.958V49.3574C78.4644 47.0129 81.0331 45.5744 83.0321 46.7996L148.824 87.1248C150.735 88.2957 150.734 91.0714 148.823 92.2412L83.0307 132.516Z" fill="#FAF7F5"/>
</g>
<defs>
<filter id="filter0_d_3223_3815" x="0" y="0" width="189" height="189" filterUnits="userSpaceOnUse" color-interpolation-filters="sRGB">
<feFlood flood-opacity="0" result="BackgroundImageFix"/>
<feColorMatrix in="SourceAlpha" type="matrix" values="0 0 0 0 0 0 0 0 0 0 0 0 0 0 0 0 0 0 127 0" result="hardAlpha"/>
<feMorphology radius="2" operator="erode" in="SourceAlpha" result="effect1_dropShadow_3223_3815"/>
<feOffset dx="10" dy="10"/>
<feGaussianBlur stdDeviation="0.5"/>
<feComposite in2="hardAlpha" operator="out"/>
<feColorMatrix type="matrix" values="0 0 0 0 0.386569 0 0 0 0 0.366669 0 0 0 0 0.366669 0 0 0 1 0"/>
<feBlend mode="normal" in2="BackgroundImageFix" result="effect1_dropShadow_3223_3815"/>
<feBlend mode="normal" in="SourceGraphic" in2="effect1_dropShadow_3223_3815" result="shape"/>
</filter>
</defs>
</svg>
