<svg width="95" height="95" viewBox="0 0 95 95" fill="none" xmlns="http://www.w3.org/2000/svg">
<g clip-path="url(#clip0_3094_2648)">
<path d="M84.6085 68.7538C82.9225 70.3462 78.1938 73.8722 73.087 77.9332C67.9802 81.9942 58.599 89.3667 57.4439 90.0168C56.2887 90.6668 55.5831 91.1191 54.4464 91.6092C53.3097 92.0992 52.6545 92.359 51.4489 92.6396C50.2433 92.9201 47.5081 93.1047 45.3603 92.8269C43.2125 92.5491 42.0263 92.1463 40.021 91.3282C38.0158 90.5101 26.1311 81.2201 22.5973 78.5892C19.0636 75.9584 13.6049 71.6576 9.95171 68.2853C6.29856 64.913 6.39227 63.3209 6.20513 61.9158C6.018 60.5108 6.01746 55.5461 6.01746 53.3916C6.01739 53.298 6.26113 53.1857 6.48594 53.8601C6.76695 54.7032 6.95429 55.5462 8.17201 57.3259C9.38974 59.1057 10.0454 59.3867 10.4201 59.7614C10.7199 60.0611 28.0303 73.5623 36.6481 80.2754C38.3966 81.7429 43.074 84.5468 47.795 84.0222C53.6963 83.3665 56.5064 82.1488 60.909 78.4956C64.431 75.5731 77.1766 65.85 83.1091 61.3538C84.3268 60.3859 86.9309 58.0566 87.6053 56.4829C88.4483 54.5158 89.1976 53.7659 89.1976 53.2043C89.1976 53.2043 89.2809 60.5317 89.0111 61.7281C88.7414 62.9245 88.6832 63.3208 87.9807 64.7259C87.2782 66.131 86.2946 67.1614 84.6085 68.7538Z" fill="url(#paint0_linear_3094_2648)"/>
<path d="M84.6439 60.4308C82.9578 62.0232 78.1136 65.413 73.0068 69.474C67.9 73.535 58.482 80.5858 57.3268 81.2359C56.1717 81.886 55.5597 82.151 54.423 82.641C53.2863 83.131 52.5375 83.2035 51.3319 83.484C50.1263 83.7646 47.1167 84.2763 45.3369 84.046C43.5572 83.8158 41.9092 83.2717 39.904 82.4536C37.8987 81.6356 26.0509 72.7608 22.5172 70.13C18.9834 67.4992 13.5247 63.1983 9.87157 59.8261C6.21842 56.4538 6.05209 54.6677 6.05237 53.4071C6.05265 52.1465 6.03997 45.7229 6.03993 44.5988C6.0399 43.4748 6.16173 44.2146 6.41464 44.9734C6.66756 45.7321 6.6957 46.1911 7.91343 47.9709C9.13116 49.7506 10.2927 50.7248 10.6299 51.062C10.9671 51.3993 31.0185 66.736 36.2022 70.8267C41.3858 74.9174 44.005 75.7256 49.3162 75.1355C54.6273 74.5454 57.5311 72.5221 61.4934 69.2342C65.4557 65.9464 80.3214 54.4219 82.7568 52.5608C85.1923 50.6996 88.5158 46.4028 88.7518 45.8164C88.9877 45.2301 89.0814 44.949 89.1751 44.387C89.2688 43.825 89.2325 50.878 89.2325 52.7514C89.2325 54.6248 88.5768 55.548 88.3895 55.8426C88.2021 56.137 86.33 58.8384 84.6439 60.4308Z" fill="url(#paint1_linear_3094_2648)"/>
<path d="M84.6214 51.8009C82.9353 53.3933 78.0911 56.7831 72.9843 60.8441C67.8776 64.9051 58.5757 71.8744 57.4205 72.5245C56.2654 73.1746 55.5597 73.4396 54.423 73.9296C53.2864 74.4196 52.0813 74.7137 51.4256 74.8663C50.7699 75.0189 46.9293 75.4283 45.4306 75.3347C43.9319 75.241 42.3394 74.679 40.2787 73.7422C38.2179 72.8055 26.0284 64.131 22.4947 61.5001C18.9609 58.8693 13.5022 54.5684 9.84908 51.1962C6.19593 47.8239 6.0296 46.0378 6.02988 44.7772C6.03016 43.5166 6.01748 37.093 6.01744 35.9689C6.01741 34.8449 6.13924 35.5848 6.39215 36.3435C6.64507 37.1022 6.67321 37.5613 7.89094 39.341C9.10867 41.1208 10.2702 42.0949 10.6074 42.4322C10.9446 42.7694 30.9961 58.1061 36.1797 62.1968C41.3633 66.2875 43.9825 67.0958 49.2937 66.5056C54.6048 65.9155 57.5086 63.8922 61.4709 60.6043C65.4332 57.3165 80.2989 45.792 82.7343 43.9309C85.1698 42.0697 87.8862 38.9663 88.6131 36.987C89.3399 35.0077 89.3625 35.3946 89.2688 36.425C89.1751 37.4554 89.21 42.2481 89.21 44.1215C89.21 45.9949 88.5543 46.9182 88.367 47.2127C88.1797 47.5072 86.3075 50.2085 84.6214 51.8009Z" fill="url(#paint2_linear_3094_2648)"/>
<path d="M6.28169 36.9107C4.14376 31.005 17.2253 20.6574 21.7088 17.2452C26.1923 13.8329 30.9741 10.3144 33.2656 8.60778C35.5572 6.90118 38.5295 4.55563 39.1373 4.24288C39.7451 3.93013 40.0853 3.73696 40.7242 3.50311C41.363 3.26926 41.7528 3.1203 42.4057 2.9607C43.0586 2.8011 43.5148 2.66323 43.8074 2.59414C44.1 2.52505 44.6365 2.47127 44.9293 2.40344C45.2222 2.3356 45.3429 2.35039 45.6775 2.31397C46.0121 2.27755 46.2479 2.31709 46.6133 2.31909C46.9788 2.32109 47.2408 2.31643 47.6428 2.32471C48.0448 2.33298 48.9023 2.33067 49.7021 2.42952C50.5019 2.52836 51.5719 2.73079 52.6068 3.10026C53.6417 3.46973 54.1743 3.80369 55.1402 4.3303C56.1061 4.85692 57.9125 6.13379 59.6486 7.34866C61.3847 8.56353 66.4604 12.6946 70.8327 16.1103C75.2049 19.526 82.1995 24.898 83.0503 25.626C83.9011 26.3541 84.4876 26.7576 85.2129 27.5089C85.9383 28.2603 86.6195 28.8071 87.19 29.6812C87.7605 30.5553 87.998 30.9535 88.4189 31.9332C88.8397 32.9129 89.2724 33.9961 89.2801 35.3994C89.2877 36.8028 88.9306 37.4287 88.5457 38.0149C88.1608 38.6012 87.0926 40.0262 86.5947 40.6238C86.0968 41.2214 85.2167 42.1902 84.362 43.044C83.5074 43.8978 75.565 49.853 70.4773 53.8204C65.3897 57.7878 58.5431 63.4275 57.4318 64.0401C56.3205 64.6526 55.6168 65.1228 54.4458 65.6142C53.2748 66.1055 52.0145 66.2684 50.3337 66.6208C48.6529 66.9732 46.1664 67.0842 44.439 66.7757C42.7115 66.4672 41.8236 65.9619 40.9697 65.5406C40.1158 65.1192 39.5407 64.696 38.7165 64.2185C37.8923 63.741 35.6043 61.8057 33.4538 60.1669C31.3033 58.5281 26.2874 55.3963 21.8985 51.9649C17.5097 48.5336 8.41962 42.8165 6.28169 36.9107Z" fill="#B5FBEC"/>
<g filter="url(#filter0_d_3094_2648)">
<path d="M27.3854 41.2356C28.4056 40.2816 30.0063 40.3353 30.9604 41.3553C31.9145 42.3755 31.8608 43.9762 30.8406 44.9303C29.8204 45.8842 28.2197 45.8307 27.2657 44.8105C26.3119 43.7904 26.3655 42.1896 27.3854 41.2356Z" stroke="white" stroke-width="1.3114"/>
<path d="M27.3854 41.2356C28.4056 40.2816 30.0063 40.3353 30.9604 41.3553C31.9145 42.3755 31.8608 43.9762 30.8406 44.9303C29.8204 45.8842 28.2197 45.8307 27.2657 44.8105C26.3119 43.7904 26.3655 42.1896 27.3854 41.2356Z" stroke="white" stroke-width="1.3114"/>
<path d="M27.3854 41.2356C28.4056 40.2816 30.0063 40.3353 30.9604 41.3553C31.9145 42.3755 31.8608 43.9762 30.8406 44.9303C29.8204 45.8842 28.2197 45.8307 27.2657 44.8105C26.3119 43.7904 26.3655 42.1896 27.3854 41.2356Z" stroke="white" stroke-width="1.3114"/>
<path d="M46.2377 34.3787C47.2067 33.4725 48.7774 33.5289 49.7442 34.5625C50.711 35.5963 50.662 37.1672 49.6929 38.0734C48.7239 38.9794 47.1531 38.9233 46.1864 37.8896C45.2199 36.8559 45.269 35.2849 46.2377 34.3787Z" stroke="white" stroke-width="1.3114"/>
<path d="M46.2377 34.3787C47.2067 33.4725 48.7774 33.5289 49.7442 34.5625C50.711 35.5963 50.662 37.1672 49.6929 38.0734C48.7239 38.9794 47.1531 38.9233 46.1864 37.8896C45.2199 36.8559 45.269 35.2849 46.2377 34.3787Z" stroke="white" stroke-width="1.3114"/>
<path d="M46.2377 34.3787C47.2067 33.4725 48.7774 33.5289 49.7442 34.5625C50.711 35.5963 50.662 37.1672 49.6929 38.0734C48.7239 38.9794 47.1531 38.9233 46.1864 37.8896C45.2199 36.8559 45.269 35.2849 46.2377 34.3787Z" stroke="white" stroke-width="1.3114"/>
<path d="M35.1051 22.4734C36.0613 21.5792 37.661 21.6409 38.6756 22.7257C39.6902 23.8106 39.6446 25.4108 38.6884 26.3051C37.7321 27.1991 36.1324 27.1377 35.1179 26.0528C34.1035 24.968 34.1491 23.3677 35.1051 22.4734Z" stroke="white" stroke-width="1.3114"/>
<path d="M35.1051 22.4734C36.0613 21.5792 37.661 21.6409 38.6756 22.7257C39.6902 23.8106 39.6446 25.4108 38.6884 26.3051C37.7321 27.1991 36.1324 27.1377 35.1179 26.0528C34.1035 24.968 34.1491 23.3677 35.1051 22.4734Z" stroke="white" stroke-width="1.3114"/>
<path d="M35.1051 22.4734C36.0613 21.5792 37.661 21.6409 38.6756 22.7257C39.6902 23.8106 39.6446 25.4108 38.6884 26.3051C37.7321 27.1991 36.1324 27.1377 35.1179 26.0528C34.1035 24.968 34.1491 23.3677 35.1051 22.4734Z" stroke="white" stroke-width="1.3114"/>
<path d="M54.4098 15.963C55.4809 14.9614 57.1113 15.0117 58.0533 16.0188C58.9952 17.026 58.9362 18.656 57.865 19.6577C56.7939 20.6594 55.1635 20.6092 54.2216 19.602C53.2799 18.5948 53.3388 16.9647 54.4098 15.963Z" stroke="white" stroke-width="1.3114"/>
<path d="M54.4098 15.963C55.4809 14.9614 57.1113 15.0117 58.0533 16.0188C58.9952 17.026 58.9362 18.656 57.865 19.6577C56.7939 20.6594 55.1635 20.6092 54.2216 19.602C53.2799 18.5948 53.3388 16.9647 54.4098 15.963Z" stroke="white" stroke-width="1.3114"/>
<path d="M54.4098 15.963C55.4809 14.9614 57.1113 15.0117 58.0533 16.0188C58.9952 17.026 58.9362 18.656 57.865 19.6577C56.7939 20.6594 55.1635 20.6092 54.2216 19.602C53.2799 18.5948 53.3388 16.9647 54.4098 15.963Z" stroke="white" stroke-width="1.3114"/>
<path d="M65.4145 27.7306C66.4856 26.7289 68.116 26.7793 69.058 27.7863C69.9999 28.7935 69.9409 30.4236 68.8697 31.4253C67.7986 32.4269 66.1682 32.3768 65.2263 31.3696C64.2846 30.3624 64.3435 28.7323 65.4145 27.7306Z" stroke="white" stroke-width="1.3114"/>
<path d="M65.4145 27.7306C66.4856 26.7289 68.116 26.7793 69.058 27.7863C69.9999 28.7935 69.9409 30.4236 68.8697 31.4253C67.7986 32.4269 66.1682 32.3768 65.2263 31.3696C64.2846 30.3624 64.3435 28.7323 65.4145 27.7306Z" stroke="white" stroke-width="1.3114"/>
<path d="M65.4145 27.7306C66.4856 26.7289 68.116 26.7793 69.058 27.7863C69.9999 28.7935 69.9409 30.4236 68.8697 31.4253C67.7986 32.4269 66.1682 32.3768 65.2263 31.3696C64.2846 30.3624 64.3435 28.7323 65.4145 27.7306Z" stroke="white" stroke-width="1.3114"/>
<path d="M57.3704 46.2825C58.3266 45.3883 59.9263 45.45 60.9409 46.5348C61.9555 47.6197 61.9099 49.2199 60.9537 50.1142C59.9974 51.0082 58.3977 50.9467 57.3832 49.8619C56.3688 48.7771 56.4144 47.1768 57.3704 46.2825Z" stroke="white" stroke-width="1.3114"/>
<path d="M57.3704 46.2825C58.3266 45.3883 59.9263 45.45 60.9409 46.5348C61.9555 47.6197 61.9099 49.2199 60.9537 50.1142C59.9974 51.0082 58.3977 50.9467 57.3832 49.8619C56.3688 48.7771 56.4144 47.1768 57.3704 46.2825Z" stroke="white" stroke-width="1.3114"/>
<path d="M57.3704 46.2825C58.3266 45.3883 59.9263 45.45 60.9409 46.5348C61.9555 47.6197 61.9099 49.2199 60.9537 50.1142C59.9974 51.0082 58.3977 50.9467 57.3832 49.8619C56.3688 48.7771 56.4144 47.1768 57.3704 46.2825Z" stroke="white" stroke-width="1.3114"/>
<path d="M38.3901 53.0026C39.4103 52.0486 41.011 52.1024 41.9651 53.1224C42.9191 54.1426 42.8655 55.7433 41.8453 56.6974C40.8251 57.6513 39.2244 57.5977 38.2704 56.5776C37.3165 55.5575 37.3702 53.9567 38.3901 53.0026Z" stroke="white" stroke-width="1.3114"/>
<path d="M38.3901 53.0026C39.4103 52.0486 41.011 52.1024 41.9651 53.1224C42.9191 54.1426 42.8655 55.7433 41.8453 56.6974C40.8251 57.6513 39.2244 57.5977 38.2704 56.5776C37.3165 55.5575 37.3702 53.9567 38.3901 53.0026Z" stroke="white" stroke-width="1.3114"/>
<path d="M38.3901 53.0026C39.4103 52.0486 41.011 52.1024 41.9651 53.1224C42.9191 54.1426 42.8655 55.7433 41.8453 56.6974C40.8251 57.6513 39.2244 57.5977 38.2704 56.5776C37.3165 55.5575 37.3702 53.9567 38.3901 53.0026Z" stroke="white" stroke-width="1.3114"/>
<line x1="40.8942" y1="52.407" x2="46.5396" y2="38.9375" stroke="white" stroke-width="1.87342"/>
<line x1="39.2942" y1="52.6083" x2="36.9894" y2="26.6566" stroke="white" stroke-width="1.87342"/>
<line x1="58.2711" y1="46.0301" x2="55.9663" y2="20.0785" stroke="white" stroke-width="1.87342"/>
<line x1="60.0785" y1="45.4448" x2="66.0282" y2="31.5046" stroke="white" stroke-width="1.87342"/>
<line x1="57.1437" y1="49.0552" x2="42.7308" y2="54.3436" stroke="white" stroke-width="1.87342"/>
<line x1="56.511" y1="47.9397" x2="31.7391" y2="43.7432" stroke="white" stroke-width="1.87342"/>
<line x1="64.3511" y1="29.2531" x2="39.5792" y2="25.0567" stroke="white" stroke-width="1.87342"/>
<line x1="64.482" y1="30.6448" x2="50.7578" y2="35.4753" stroke="white" stroke-width="1.87342"/>
<line x1="45.1144" y1="37.4026" x2="31.3902" y2="42.2332" stroke="white" stroke-width="1.87342"/>
<line x1="53.9397" y1="18.3599" x2="39.5268" y2="23.6483" stroke="white" stroke-width="1.87342"/>
<line x1="29.8461" y1="40.5849" x2="35.7958" y2="26.6447" stroke="white" stroke-width="1.87342"/>
<line x1="49.1185" y1="33.7331" x2="54.7639" y2="20.2636" stroke="white" stroke-width="1.87342"/>
</g>
</g>
<defs>
<filter id="filter0_d_3094_2648" x="9.16716" y="0.458984" width="76.3037" height="76.0373" filterUnits="userSpaceOnUse" color-interpolation-filters="sRGB">
<feFlood flood-opacity="0" result="BackgroundImageFix"/>
<feColorMatrix in="SourceAlpha" type="matrix" values="0 0 0 0 0 0 0 0 0 0 0 0 0 0 0 0 0 0 127 0" result="hardAlpha"/>
<feOffset dy="0.74937"/>
<feGaussianBlur stdDeviation="0.374685"/>
<feComposite in2="hardAlpha" operator="out"/>
<feColorMatrix type="matrix" values="0 0 0 0 0 0 0 0 0 0 0 0 0 0 0 0 0 0 0.25 0"/>
<feBlend mode="normal" in2="BackgroundImageFix" result="effect1_dropShadow_3094_2648"/>
<feBlend mode="normal" in="SourceGraphic" in2="effect1_dropShadow_3094_2648" result="shape"/>
</filter>
<linearGradient id="paint0_linear_3094_2648" x1="53.2053" y1="87.9802" x2="40.466" y2="87.2309" gradientUnits="userSpaceOnUse">
<stop stop-color="#00AEC9"/>
<stop offset="0.497176" stop-color="#00AEC9" stop-opacity="0.76"/>
<stop offset="1" stop-color="#00AEC9"/>
</linearGradient>
<linearGradient id="paint1_linear_3094_2648" x1="54.9851" y1="79.4562" x2="39.4356" y2="78.8941" gradientUnits="userSpaceOnUse">
<stop stop-color="#00B9B6"/>
<stop offset="0.5" stop-color="#00B9B6" stop-opacity="0.76"/>
<stop offset="1" stop-color="#00B9B6"/>
</linearGradient>
<linearGradient id="paint2_linear_3094_2648" x1="55.0787" y1="72.0562" x2="39.9977" y2="71.3068" gradientUnits="userSpaceOnUse">
<stop stop-color="#55D1B4"/>
<stop offset="0.5" stop-color="#55D1B4" stop-opacity="0.76"/>
<stop offset="1" stop-color="#55D1B4"/>
</linearGradient>
<clipPath id="clip0_3094_2648">
<rect width="95" height="95" fill="white"/>
</clipPath>
</defs>
</svg>
